<svg xmlns="http://www.w3.org/2000/svg" width="255" height="72" viewBox="0 0 255 72">
    <defs>
        <style>
            .cls-1{fill:#170738}
        </style>
    </defs>
    <g id="Sweeft_Splash_Logo" transform="translate(4.182 -285.004)">
        <path id="Path_796" d="M36 0a36 36 0 1 0 36 36A36.013 36.013 0 0 0 36 0zm6.24 57.6H36.1v-9.216h6.14a4.056 4.056 0 0 0 4.032-4.032 4.14 4.14 0 0 0-4.032-4.128H29.856a13.248 13.248 0 0 1 0-26.5H36v9.216h-6.144a4.14 4.14 0 0 0-4.128 4.032 4.078 4.078 0 0 0 4.128 4.032H42.24a13.3 13.3 0 0 1 0 26.592z" class="cls-1" transform="translate(-4.182 285.004)"/>
        <g id="Group_397" transform="translate(75.818 289.372)">
            <g id="Group_396" transform="translate(0 -.368)">
                <path id="Path_799" d="M15.442 40.31c0-1.923-1.522-2.8-3.525-3.685-1.842-.8-4.486-1.522-6.649-2.563a7.717 7.717 0 0 1-4.806-7.53C.461 21.4 4.467 18.2 11.6 18.2a19.43 19.43 0 0 1 9.373 2.163.755.755 0 0 1 .4 1.041l-1.842 3.685c-.24.481-.561.481-1.041.24A13.424 13.424 0 0 0 12 23.567c-2.8 0-4.726.8-4.726 2.8 0 1.682 1.442 2.483 3.124 3.284 2 .8 4.486 1.6 6.489 2.563 3.845 1.842 5.287 4.166 5.287 7.45 0 5.367-4.486 9.052-11.616 9.052-4.967 0-8.171-1.2-10.254-2.563a.7.7 0 0 1-.32-.961l1.842-3.685c.16-.481.561-.561 1.041-.32a13.491 13.491 0 0 0 7.45 2.4c2.962.007 5.125-1.034 5.125-3.277z" class="cls-1" transform="translate(.097 -3.721)"/>
                <path id="Path_800" d="M45.462 47.559c-.16.641-.561.8-1.2.8h-5.369c-.641 0-1.041-.16-1.2-.8l-8.814-27.637c-.16-.481-.16-1.122.641-1.122h5.047c.721 0 1.122.24 1.282.881l6.088 20.668h.16l5.928-20.588a1.157 1.157 0 0 1 1.282-.881h3.845a1.157 1.157 0 0 1 1.282.881l6.088 20.668h.16l6.088-20.668c.16-.641.561-.881 1.282-.881h4.726c.8 0 .8.641.561 1.122l-8.892 27.557c-.16.641-.561.8-1.2.8H57.8c-.641 0-1.122-.16-1.2-.8l-5.451-17.864h-.16z" class="cls-1" transform="translate(-5.651 -3.841)"/>
                <path id="Path_801" d="M109.773 41.191c.561-.32.961-.16 1.122.16l1.762 3.2a.723.723 0 0 1-.32 1.041 20.639 20.639 0 0 1-11.137 3.129c-4.887 0-8.892-1.6-11.616-4.486A15.948 15.948 0 0 1 85.5 33.1a15.21 15.21 0 0 1 4.166-10.734A14.462 14.462 0 0 1 100.4 18.2c5.047 0 8.812 1.842 11.055 4.806 2.163 2.8 3.044 6.809 2.8 11.3a.947.947 0 0 1-.881.881H92.55a8.871 8.871 0 0 0 2.163 5.447 8.989 8.989 0 0 0 6.969 2.8 14.55 14.55 0 0 0 8.091-2.243zm-1.923-10.414a8.123 8.123 0 0 0-1.923-5.047 7.207 7.207 0 0 0-5.527-2.243 7.47 7.47 0 0 0-5.848 2.4 8.044 8.044 0 0 0-1.923 4.887z" class="cls-1" transform="translate(-16.923 -3.721)"/>
                <path id="Path_802" d="M149.573 41.191c.561-.32.961-.16 1.122.16l1.762 3.2a.723.723 0 0 1-.32 1.041A20.639 20.639 0 0 1 141 48.721c-4.887 0-8.892-1.6-11.616-4.486A15.948 15.948 0 0 1 125.3 33.1a15.21 15.21 0 0 1 4.166-10.734A14.462 14.462 0 0 1 140.2 18.2c5.047 0 8.812 1.842 11.055 4.806 2.163 2.8 3.044 6.809 2.8 11.3a.947.947 0 0 1-.881.881H132.43a8.871 8.871 0 0 0 2.163 5.447 8.989 8.989 0 0 0 6.969 2.8 14.467 14.467 0 0 0 8.011-2.243zm-1.923-10.414a8.123 8.123 0 0 0-1.923-5.047 7.207 7.207 0 0 0-5.527-2.243 7.47 7.47 0 0 0-5.848 2.4 8.044 8.044 0 0 0-1.923 4.887z" class="cls-1" transform="translate(-24.836 -3.721)"/>
                <path id="Path_803" d="M207.359 41.136l-1.682-3.584c-.24-.478-.721-.478-1.2-.159a7.594 7.594 0 0 1-4.726 1.752 4.057 4.057 0 0 1-3.845-1.832 8.983 8.983 0 0 1-.8-3.982V20.189h9.132a.859.859 0 0 0 .8-.8v-3.66a.859.859 0 0 0-.8-.8h-9.052V9.2a.859.859 0 0 0-.8-.8h-5.047a.8.8 0 0 0-.8.8v5.735h-13.784v-3.427c0-2.071.24-3.664 1.121-4.7a3.9 3.9 0 0 1 3.2-1.354 9.236 9.236 0 0 1 5.287 1.832c.481.319 1.041.239 1.2-.159l1.682-3.5a.8.8 0 0 0-.32-1.035A16.065 16.065 0 0 0 177.639-.2c-3.044 0-5.287.876-6.809 2.469-2.083 2.071-2.8 5.257-2.8 8.6v3.982h-3.53a.8.8 0 0 0-.8.8v3.664a.859.859 0 0 0 .8.8h3.525v23.251a.755.755 0 0 0 .8.8h5.047a.755.755 0 0 0 .8-.8V20.189h13.779v14.018c0 2.947.481 5.814 2.163 7.805 1.442 1.752 3.765 2.788 7.37 2.788a15.5 15.5 0 0 0 8.972-2.628c.483-.239.644-.637.403-1.036z" class="cls-1" transform="translate(-32.469 .2)"/>
            </g>
            <path id="Path_3589" d="M5.915-6.306a1.679 1.679 0 0 0-1.34-.528 2.57 2.57 0 0 0-1.7.619 3.405 3.405 0 0 0-.86 1.085h-.03l.194-1.478c.015-.06-.015-.091-.074-.091H1.7a.1.1 0 0 0-.1.091L.69-.046C.69.03.735.06.779.06h.432a.127.127 0 0 0 .119-.106l.491-3.485a3.8 3.8 0 0 1 .968-2.082A2.2 2.2 0 0 1 4.4-6.291a1.275 1.275 0 0 1 1.057.453 2.157 2.157 0 0 1 .413 1.432 8.065 8.065 0 0 1-.07.936L5.334-.046c-.015.075.03.106.089.106h.447a.113.113 0 0 0 .1-.106l.466-3.424a3.819 3.819 0 0 1 .982-2.142 2.178 2.178 0 0 1 1.608-.679 1.326 1.326 0 0 1 1.072.453 2.242 2.242 0 0 1 .417 1.433 8.065 8.065 0 0 1-.074.935L9.979-.046c-.015.075.03.106.074.106h.447a.1.1 0 0 0 .1-.106l.461-3.424a9.114 9.114 0 0 0 .089-1 2.771 2.771 0 0 0-.521-1.78 1.777 1.777 0 0 0-1.439-.584 2.712 2.712 0 0 0-1.757.634 3.52 3.52 0 0 0-.982 1.252h-.03a2.382 2.382 0 0 0-.506-1.358zm13.129 2.474a2.958 2.958 0 0 0-1-2.263 3.1 3.1 0 0 0-2.024-.739 3.307 3.307 0 0 0-2.62 1.3 4.165 4.165 0 0 0-.848 2.746 3.047 3.047 0 0 0 1.089 2.35 3.216 3.216 0 0 0 1.95.638 3.28 3.28 0 0 0 2.65-1.3 4.327 4.327 0 0 0 .803-2.732zm-.64.03a4.1 4.1 0 0 1-.67 2.368 2.653 2.653 0 0 1-2.143 1.086 2.279 2.279 0 0 1-1.578-.588 2.49 2.49 0 0 1-.819-1.9 3.723 3.723 0 0 1 .7-2.338 2.7 2.7 0 0 1 2.129-1.116 2.369 2.369 0 0 1 1.637.634A2.527 2.527 0 0 1 18.4-3.8zm7.711-.664a2.694 2.694 0 0 0-.536-1.78 1.766 1.766 0 0 0-1.429-.588 2.684 2.684 0 0 0-1.742.619 3.405 3.405 0 0 0-.863 1.086H21.5l.208-1.478c0-.06-.015-.091-.074-.091h-.4a.1.1 0 0 0-.1.091L20.22-.046c0 .075.045.106.089.106h.432a.127.127 0 0 0 .119-.106l.476-3.485a3.831 3.831 0 0 1 .982-2.082 2.293 2.293 0 0 1 1.637-.679 1.337 1.337 0 0 1 1.087.453 2.161 2.161 0 0 1 .432 1.433 8.065 8.065 0 0 1-.074.935l-.461 3.425c-.015.075.03.106.089.106h.432a.1.1 0 0 0 .1-.106l.461-3.424a9.115 9.115 0 0 0 .094-.996zm5.478 1.509A2.4 2.4 0 0 0 33.3-5.145a1.554 1.554 0 0 0-.521-1.192 2.326 2.326 0 0 0-1.548-.5 3.6 3.6 0 0 0-2.69 1.237A4.347 4.347 0 0 0 27.5-2.791a2.944 2.944 0 0 0 .923 2.278A2.912 2.912 0 0 0 30.447.2a4.252 4.252 0 0 0 2.263-.588c.045-.03.074-.06.03-.121l-.134-.3c-.015-.045-.06-.06-.119-.03a3.746 3.746 0 0 1-1.95.528A2.231 2.231 0 0 1 28.9-.906a2.5 2.5 0 0 1-.744-1.6 8.206 8.206 0 0 0 3.437-.451zM29-5.25a2.812 2.812 0 0 1 2.2-1.071 1.629 1.629 0 0 1 1.2.421 1.1 1.1 0 0 1 .342.815 2.017 2.017 0 0 1-1.489 1.8 7.4 7.4 0 0 1-3.111.347A3.9 3.9 0 0 1 29-5.25zm11.613-1.313c.015-.06.045-.136-.06-.136h-.491a.143.143 0 0 0-.149.106l-3.244 6.23-1.727-6.23c-.015-.075-.045-.106-.119-.106h-.506c-.1 0-.119.075-.089.136l2.024 7a9.086 9.086 0 0 1-1.1 1.614 2.21 2.21 0 0 1-1.652.83h-.2a.1.1 0 0 0-.1.091l-.06.468c0 .045 0 .091.06.091a2.907 2.907 0 0 0 2.188-.875A8.7 8.7 0 0 0 36.937.407zm9.527.256a1.679 1.679 0 0 0-1.34-.528 2.57 2.57 0 0 0-1.7.619 3.405 3.405 0 0 0-.86 1.086h-.03l.19-1.478c.015-.06-.015-.091-.074-.091h-.4a.1.1 0 0 0-.1.091l-.911 6.562c0 .075.045.106.089.106h.432a.127.127 0 0 0 .119-.106l.491-3.485a3.8 3.8 0 0 1 .968-2.082 2.2 2.2 0 0 1 1.608-.679 1.275 1.275 0 0 1 1.057.453 2.157 2.157 0 0 1 .421 1.433 8.065 8.065 0 0 1-.074.935L49.56-.046c-.015.075.03.106.089.106h.451a.113.113 0 0 0 .1-.106l.461-3.424a3.819 3.819 0 0 1 .982-2.142 2.178 2.178 0 0 1 1.608-.679 1.326 1.326 0 0 1 1.072.453 2.242 2.242 0 0 1 .417 1.433 8.065 8.065 0 0 1-.074.935L54.2-.046c-.015.075.03.106.074.106h.447a.1.1 0 0 0 .1-.106l.461-3.424a9.115 9.115 0 0 0 .089-1 2.771 2.771 0 0 0-.521-1.78 1.777 1.777 0 0 0-1.444-.588 2.712 2.712 0 0 0-1.757.634 3.52 3.52 0 0 0-.982 1.252h-.03a2.382 2.382 0 0 0-.497-1.354zM61.379.06h.4a.1.1 0 0 0 .089-.106l.893-6.487c.015-.106-.03-.166-.1-.181a6.953 6.953 0 0 0-1.461-.12 4.756 4.756 0 0 0-3.275 1.3 3.8 3.8 0 0 0-1.161 2.851A2.985 2.985 0 0 0 57.449-.6a2.3 2.3 0 0 0 1.712.769 3.022 3.022 0 0 0 2.233-.92l-.1.709c-.019.072.025.102.085.102zm-2.054-.438a1.778 1.778 0 0 1-1.369-.634 2.473 2.473 0 0 1-.536-1.69 3.4 3.4 0 0 1 .938-2.444 3.937 3.937 0 0 1 2.665-1.116 4.725 4.725 0 0 1 1.072.06l-.67 4.842a2.624 2.624 0 0 1-2.1.982zm7.949.015a2.944 2.944 0 0 1-2.054-.724 2.337 2.337 0 0 1-.685-1.8 3.054 3.054 0 0 1 .848-2.2A3.857 3.857 0 0 1 68-6.186a7.713 7.713 0 0 1 1.221.03l-.786 5.718a9.393 9.393 0 0 1-1.161.075zm3.126-9.76a.082.082 0 0 0-.074-.106h-.461a.126.126 0 0 0-.1.106L69.3-6.714a7.8 7.8 0 0 0-1.459 0 4.8 4.8 0 0 0-2.977 1.267 3.664 3.664 0 0 0-.982 2.565 2.842 2.842 0 0 0 .893 2.2 3.669 3.669 0 0 0 2.5.86A11.116 11.116 0 0 0 68.867.06c.089-.03.134-.03.149-.121zm4.7 7.166a2.4 2.4 0 0 0 1.712-2.187 1.554 1.554 0 0 0-.521-1.192 2.326 2.326 0 0 0-1.548-.5A3.6 3.6 0 0 0 72.052-5.6a4.347 4.347 0 0 0-1.042 2.809 2.944 2.944 0 0 0 .923 2.278A2.912 2.912 0 0 0 73.957.2a4.252 4.252 0 0 0 2.263-.593c.045-.03.074-.06.03-.121l-.134-.3c-.015-.045-.06-.06-.119-.03a3.746 3.746 0 0 1-1.95.528 2.231 2.231 0 0 1-1.637-.588 2.5 2.5 0 0 1-.744-1.6 8.206 8.206 0 0 0 3.434-.453zM72.513-5.25a2.812 2.812 0 0 1 2.2-1.071 1.629 1.629 0 0 1 1.191.422 1.1 1.1 0 0 1 .342.815 2.017 2.017 0 0 1-1.489 1.8 7.4 7.4 0 0 1-3.111.347 3.9 3.9 0 0 1 .867-2.313zm13.561-1.1c.045-.075.03-.121-.045-.166a4.257 4.257 0 0 0-1.712-.3 3.207 3.207 0 0 0-1.905.513 1.432 1.432 0 0 0-.64 1.237c0 .981.655 1.343 1.533 1.75.893.422 1.816.694 1.816 1.644a1.184 1.184 0 0 1-.476 1.011 2.4 2.4 0 0 1-1.429.377 2.766 2.766 0 0 1-1.771-.546c-.074-.06-.119-.03-.164.045l-.164.256c-.06.091-.045.121.015.166A3.5 3.5 0 0 0 83.216.2a2.967 2.967 0 0 0 1.831-.5 1.622 1.622 0 0 0 .7-1.418c0-1.086-.729-1.448-1.861-1.931-.878-.392-1.5-.664-1.5-1.448a.993.993 0 0 1 .417-.83 2.568 2.568 0 0 1 1.489-.392 3.257 3.257 0 0 1 1.444.287c.089.03.119.045.164-.045zm7.354 2.519a2.958 2.958 0 0 0-1-2.263 3.1 3.1 0 0 0-2.024-.739 3.307 3.307 0 0 0-2.62 1.3 4.165 4.165 0 0 0-.848 2.746 3.047 3.047 0 0 0 1.088 2.349 3.216 3.216 0 0 0 1.95.638 3.28 3.28 0 0 0 2.65-1.3 4.327 4.327 0 0 0 .804-2.732zm-.64.03a4.1 4.1 0 0 1-.67 2.368 2.653 2.653 0 0 1-2.144 1.085A2.279 2.279 0 0 1 88.4-.936a2.49 2.49 0 0 1-.819-1.9 3.723 3.723 0 0 1 .7-2.338A2.7 2.7 0 0 1 90.41-6.29a2.369 2.369 0 0 1 1.637.634 2.527 2.527 0 0 1 .741 1.856zm7.577-2.5c.045-.06.015-.106-.045-.151a4.214 4.214 0 0 0-1.82-.382 3.978 3.978 0 0 0-2.769 1.177 3.828 3.828 0 0 0-1.206 2.821 3.055 3.055 0 0 0 .819 2.157 3.046 3.046 0 0 0 2.2.875 4.168 4.168 0 0 0 2.188-.558.138.138 0 0 0 .06-.151L99.665-.8c-.03-.075-.089-.075-.164-.015a3.612 3.612 0 0 1-1.846.468 2.418 2.418 0 0 1-1.831-.769 2.637 2.637 0 0 1-.64-1.78 3.365 3.365 0 0 1 1-2.4 3.348 3.348 0 0 1 2.316-.98 3.308 3.308 0 0 1 1.5.317c.074.03.119.03.164-.015zm.461 6.261c-.03.075.015.106.074.106h.461c.045 0 .089-.015.089-.091l.908-6.577c.015-.06-.015-.091-.074-.091h-.447c-.06 0-.1.03-.1.091zm1.28-10a.423.423 0 0 0 .417.437.423.423 0 0 0 .417-.437.419.419 0 0 0-.417-.422.419.419 0 0 0-.417.414zM108.09.06h.4a.1.1 0 0 0 .089-.106l.893-6.487c.015-.106-.03-.166-.1-.181a6.953 6.953 0 0 0-1.459-.121 4.756 4.756 0 0 0-3.275 1.3 3.8 3.8 0 0 0-1.161 2.851A2.985 2.985 0 0 0 104.16-.6a2.3 2.3 0 0 0 1.712.769 3.022 3.022 0 0 0 2.233-.92l-.1.709c-.019.072.026.102.085.102zm-2.054-.437a1.778 1.778 0 0 1-1.369-.634 2.473 2.473 0 0 1-.536-1.69 3.4 3.4 0 0 1 .938-2.444 3.937 3.937 0 0 1 2.665-1.116 4.725 4.725 0 0 1 1.072.06l-.67 4.842a2.624 2.624 0 0 1-2.1.981zm6.654-9.745c0-.06-.03-.106-.074-.106h-.461a.126.126 0 0 0-.1.106L110.666-.046c-.015.075.015.106.074.106h.461a.1.1 0 0 0 .1-.091z" class="cls-1" transform="translate(.31 60.102)"/>
        </g>
    </g>
</svg>
